<svg xmlns="http://www.w3.org/2000/svg" width="24" height="24"  viewBox="0 0 24 24"><g transform="matrix(1 0 0 1 0 0)"  ><g style=""   ><g transform="matrix(1 0 0 1 12 12)"  ><path style="stroke: none; stroke-width: 1; stroke-dasharray: none; stroke-linecap: butt; stroke-dashoffset: 0; stroke-linejoin: miter; stroke-miterlimit: 4; fill: rgb(156,163,175); fill-rule: nonzero; opacity: 1;"  transform=" translate(-12, -12)" d="M 21 12 C 21 7.02944 16.9706 3 12 3 C 7.02944 3 3 7.02944 3 12 C 3 16.9706 7.02944 21 12 21 C 16.9706 21 21 16.9706 21 12 Z M 23 12 C 23 18.0751 18.0751 23 12 23 C 5.92487 23 1 18.0751 1 12 C 1 5.92487 5.92487 1 12 1 C 18.0751 1 23 5.92487 23 12 Z" stroke-linecap="round" /></g><g transform="matrix(1 0 0 1 12 10)"  ><path style="stroke: none; stroke-width: 1; stroke-dasharray: none; stroke-linecap: butt; stroke-dashoffset: 0; stroke-linejoin: miter; stroke-miterlimit: 4; fill: rgb(156,163,175); fill-rule: nonzero; opacity: 1;"  transform=" translate(-12, -10)" d="M 14 10 C 14 8.89543 13.1046 8 12 8 C 10.8954 8 10 8.89543 10 10 C 10 11.1046 10.8954 12 12 12 C 13.1046 12 14 11.1046 14 10 Z M 16 10 C 16 12.2091 14.2091 14 12 14 C 9.79086 14 8 12.2091 8 10 C 8 7.79086 9.79086 6 12 6 C 14.2091 6 16 7.79086 16 10 Z" stroke-linecap="round" /></g><g transform="matrix(1 0 0 1 12 18.83)"  ><path style="stroke: none; stroke-width: 1; stroke-dasharray: none; stroke-linecap: butt; stroke-dashoffset: 0; stroke-linejoin: miter; stroke-miterlimit: 4; fill: rgb(156,163,175); fill-rule: nonzero; opacity: 1;"  transform=" translate(-12, -18.83)" d="M 16 20.6621 L 16 19 C 16 18.7348 15.8946 18.4805 15.707 18.293 C 15.5195 18.1054 15.2652 18 15 18 L 9 18 C 8.73478 18 8.48051 18.1054 8.29297 18.293 C 8.10543 18.4805 8 18.7348 8 19 L 8 20.6621 C 7.99994 21.2143 7.55225 21.6621 7 21.6621 C 6.44775 21.6621 6.00006 21.2143 6 20.6621 L 6 19 C 6 18.2044 6.3163 17.4415 6.87891 16.8789 C 7.44152 16.3163 8.20435 16 9 16 L 15 16 C 15.7957 16 16.5585 16.3163 17.1211 16.8789 C 17.6837 17.4415 18 18.2043 18 19 L 18 20.6621 C 17.9999 21.2143 17.5522 21.6621 17 21.6621 C 16.4478 21.6621 16.0001 21.2143 16 20.6621 Z" stroke-linecap="round" /></g></g></g></svg>