<svg xmlns="http://www.w3.org/2000/svg" width="48" height="48"  viewBox="0 0 48 48"><g transform="matrix(1 0 0 1 0 0)"  ><g style=""   ><g transform="matrix(2 0 0 2 24 20.01)"  ><path style="stroke: none; stroke-width: 1; stroke-dasharray: none; stroke-linecap: butt; stroke-dashoffset: 0; stroke-linejoin: miter; stroke-miterlimit: 4; fill: rgb(168,85,247); fill-rule: nonzero; opacity: 1;"  transform=" translate(-12, -10)" d="M 12.1998 2.02081 C 12.3321 2.03859 12.4616 2.0733 12.5845 2.12531 L 12.7632 2.21613 L 12.9283 2.32941 C 13.0329 2.41186 13.1264 2.50751 13.2056 2.61456 L 13.314 2.78351 L 13.3228 2.80011 L 16.2691 8.39191 L 20.5328 4.74054 L 20.5523 4.72394 L 20.647 4.65265 C 20.8743 4.49597 21.1413 4.40475 21.4185 4.38995 L 21.5377 4.388 C 21.7744 4.39418 22.0063 4.45663 22.2144 4.56964 L 22.316 4.63019 L 22.4136 4.69855 C 22.6013 4.84297 22.7515 5.03052 22.8531 5.24445 L 22.9 5.35284 L 22.9381 5.46613 C 23.0157 5.7311 23.0187 6.0136 22.9459 6.28156 L 22.9449 6.28546 L 20.1109 16.5316 C 19.9951 16.9506 19.7458 17.3205 19.4009 17.5853 C 19.0559 17.8502 18.6338 17.9959 18.1988 17.9993 L 5.80329 17.9993 C 5.3681 17.9963 4.94553 17.851 4.60016 17.5862 C 4.25489 17.3214 4.00509 16.951 3.88922 16.5316 L 1.05622 6.28644 L 1.05524 6.28253 C 0.97199 5.97615 0.987979 5.65046 1.10114 5.35382 L 1.14801 5.24542 C 1.26657 4.99584 1.45221 4.78265 1.68512 4.63116 L 1.78668 4.57062 C 1.99477 4.45762 2.22673 4.39514 2.46344 4.38898 L 2.58258 4.39093 L 2.70075 4.40167 C 2.93527 4.43293 3.15927 4.51933 3.35407 4.65363 L 3.44879 4.72491 L 3.46833 4.74152 L 7.73004 8.39288 L 10.6773 2.80011 L 10.6861 2.78351 C 10.8156 2.54845 11.0059 2.35268 11.2369 2.21613 L 11.4156 2.12531 C 11.5997 2.04744 11.7983 2.0072 11.9996 2.00714 L 12.1998 2.02081 Z M 9.49469 9.33722 L 9.48883 9.34796 C 9.34805 9.60742 9.1517 9.8326 8.91364 10.0071 C 8.67554 10.1817 8.40172 10.3015 8.11188 10.3577 C 7.82202 10.4139 7.52299 10.4053 7.23688 10.3323 C 7.02225 10.2776 6.81872 10.1876 6.63434 10.0667 L 6.45661 9.93585 C 6.45209 9.93212 6.44738 9.92794 6.44293 9.92413 L 3.42047 7.33429 L 5.81696 15.9984 L 5.81696 15.9993 L 18.1832 15.9993 L 18.1832 15.9984 L 20.5797 7.33234 L 17.5562 9.92316 C 17.5518 9.92698 17.5471 9.93113 17.5425 9.93488 C 17.3151 10.1228 17.0491 10.2585 16.7632 10.3314 C 16.4772 10.4043 16.1781 10.4129 15.8882 10.3568 C 15.5984 10.3005 15.3246 10.1807 15.0865 10.0062 C 14.8484 9.83164 14.6521 9.60641 14.5113 9.34698 L 14.5054 9.33624 L 11.9996 4.57941 L 9.49469 9.33722 Z" stroke-linecap="round" /></g><g transform="matrix(2 0 0 2 24 42)"  ><path style="stroke: none; stroke-width: 1; stroke-dasharray: none; stroke-linecap: butt; stroke-dashoffset: 0; stroke-linejoin: miter; stroke-miterlimit: 4; fill: rgb(168,85,247); fill-rule: nonzero; opacity: 1;"  transform=" translate(-12, -21)" d="M 19 20 C 19.5523 20 20 20.4477 20 21 C 20 21.5523 19.5523 22 19 22 L 5 22 C 4.44772 22 4 21.5523 4 21 C 4 20.4477 4.44772 20 5 20 L 19 20 Z" stroke-linecap="round" /></g></g></g></svg>