<svg xmlns="http://www.w3.org/2000/svg" width="24" height="24"  viewBox="0 0 24 24"><g transform="matrix(1 0 0 1 0 0)"  ><g style=""   ><g transform="matrix(1 0 0 1 12 12)"  ><path style="stroke: none; stroke-width: 1; stroke-dasharray: none; stroke-linecap: butt; stroke-dashoffset: 0; stroke-linejoin: miter; stroke-miterlimit: 4; fill: rgb(156,163,175); fill-rule: nonzero; opacity: 1;"  transform=" translate(-12, -12)" d="M 16.0598 6.77665 C 16.3801 6.7179 16.7131 6.81862 16.9475 7.05302 C 17.2152 7.32086 17.3085 7.71721 17.1887 8.07645 L 15.385 13.4876 C 15.2377 13.9294 14.9897 14.3311 14.6604 14.6604 C 14.3722 14.9487 14.0281 15.1738 13.6506 15.3245 L 13.4875 15.385 L 8.07641 17.1888 C 7.71717 17.3085 7.32081 17.2152 7.05297 16.9475 C 6.78517 16.6797 6.69205 16.2834 6.81176 15.9241 L 8.61547 10.513 L 8.67504 10.3489 C 8.8257 9.97158 9.05192 9.62828 9.34008 9.34013 C 9.66943 9.01078 10.0711 8.76279 10.5129 8.61552 L 15.9241 6.81181 L 16.0598 6.77665 Z M 11.1457 10.513 L 11.1448 10.513 C 10.9977 10.5621 10.8638 10.6445 10.7541 10.7542 C 10.6445 10.8639 10.562 10.9977 10.5129 11.1448 L 10.5129 11.1458 L 9.34106 14.6585 L 12.8547 13.4876 L 12.9621 13.4446 C 13.0673 13.3955 13.1629 13.3279 13.2454 13.2454 C 13.3551 13.1356 13.4384 13.0021 13.4875 12.8548 L 14.6584 9.3411 L 11.1457 10.513 Z" stroke-linecap="round" /></g><g transform="matrix(1 0 0 1 12 12)"  ><path style="stroke: none; stroke-width: 1; stroke-dasharray: none; stroke-linecap: butt; stroke-dashoffset: 0; stroke-linejoin: miter; stroke-miterlimit: 4; fill: rgb(156,163,175); fill-rule: nonzero; opacity: 1;"  transform=" translate(-12, -12)" d="M 21 12 C 21 7.02944 16.9706 3 12 3 C 7.02944 3 3 7.02944 3 12 C 3 16.9706 7.02944 21 12 21 C 16.9706 21 21 16.9706 21 12 Z M 23 12 C 23 18.0751 18.0751 23 12 23 C 5.92487 23 1 18.0751 1 12 C 1 5.92487 5.92487 1 12 1 C 18.0751 1 23 5.92487 23 12 Z" stroke-linecap="round" /></g></g></g></svg>