<svg xmlns="http://www.w3.org/2000/svg" width="48" height="48"  viewBox="0 0 48 48"><g transform="matrix(1 0 0 1 0 0)"  ><g style=""   ><g transform="matrix(2 0 0 2 18 36)"  ><path style="stroke: none; stroke-width: 1; stroke-dasharray: none; stroke-linecap: butt; stroke-dashoffset: 0; stroke-linejoin: miter; stroke-miterlimit: 4; fill: rgb(59,130,246); fill-rule: nonzero; opacity: 1;"  transform=" translate(-9, -18)" d="M 15 21 L 15 19 C 15 18.2044 14.6837 17.4415 14.1211 16.8789 C 13.6289 16.3867 12.9835 16.0829 12.2969 16.0146 L 12 16 L 6 16 C 5.20435 16 4.44152 16.3163 3.87891 16.8789 C 3.3163 17.4415 3 18.2044 3 19 L 3 21 C 3 21.5523 2.55228 22 2 22 C 1.44772 22 1 21.5523 1 21 L 1 19 C 1 17.6739 1.52716 16.4025 2.46484 15.4648 C 3.40253 14.5272 4.67392 14 6 14 L 12 14 L 12.248 14.0059 C 13.4838 14.0672 14.6561 14.5858 15.5352 15.4648 C 16.4728 16.4025 17 17.6739 17 19 L 17 21 C 17 21.5523 16.5523 22 16 22 C 15.4477 22 15 21.5523 15 21 Z" stroke-linecap="round" /></g><g transform="matrix(2 0 0 2 18 14)"  ><path style="stroke: none; stroke-width: 1; stroke-dasharray: none; stroke-linecap: butt; stroke-dashoffset: 0; stroke-linejoin: miter; stroke-miterlimit: 4; fill: rgb(59,130,246); fill-rule: nonzero; opacity: 1;"  transform=" translate(-9, -7)" d="M 12 7 C 12 5.34315 10.6569 4 9 4 C 7.34315 4 6 5.34315 6 7 C 6 8.65685 7.34315 10 9 10 C 10.6569 10 12 8.65685 12 7 Z M 14 7 C 14 9.76142 11.7614 12 9 12 C 6.23858 12 4 9.76142 4 7 C 4 4.23858 6.23858 2 9 2 C 11.7614 2 14 4.23858 14 7 Z" stroke-linecap="round" /></g><g transform="matrix(2 0 0 2 38 22)"  ><path style="stroke: none; stroke-width: 1; stroke-dasharray: none; stroke-linecap: butt; stroke-dashoffset: 0; stroke-linejoin: miter; stroke-miterlimit: 4; fill: rgb(59,130,246); fill-rule: nonzero; opacity: 1;"  transform=" translate(-19, -11)" d="M 21.3691 8.22462 C 21.7619 7.90427 22.3409 7.92686 22.707 8.29298 C 23.0731 8.65909 23.0957 9.2381 22.7754 9.63087 L 22.707 9.70704 L 18.707 13.707 C 18.3409 14.0732 17.7619 14.0958 17.3691 13.7754 L 17.293 13.707 L 15.293 11.707 L 15.2246 11.6309 C 14.9043 11.2381 14.9269 10.6591 15.293 10.293 C 15.6591 9.92686 16.2381 9.90427 16.6309 10.2246 L 16.707 10.293 L 18 11.5859 L 21.293 8.29298 L 21.3691 8.22462 Z" stroke-linecap="round" /></g></g></g></svg>