<svg xmlns="http://www.w3.org/2000/svg" width="24" height="24"  viewBox="0 0 24 24"><g transform="matrix(1 0 0 1 0 0)"  ><g style=""   ><g transform="matrix(1 0 0 1 12 4)"  ><path style="stroke: none; stroke-width: 1; stroke-dasharray: none; stroke-linecap: butt; stroke-dashoffset: 0; stroke-linejoin: miter; stroke-miterlimit: 4; fill: rgb(156,163,175); fill-rule: nonzero; opacity: 1;"  transform=" translate(-12, -4)" d="M 9 3 L 9 5 L 15 5 L 15 3 L 9 3 Z M 17 5 C 17 6.10457 16.1046 7 15 7 L 9 7 C 7.89543 7 7 6.10457 7 5 L 7 3 C 7 1.89543 7.89543 1 9 1 L 15 1 C 16.1046 1 17 1.89543 17 3 L 17 5 Z" stroke-linecap="round" /></g><g transform="matrix(1 0 0 1 12 13)"  ><path style="stroke: none; stroke-width: 1; stroke-dasharray: none; stroke-linecap: butt; stroke-dashoffset: 0; stroke-linejoin: miter; stroke-miterlimit: 4; fill: rgb(156,163,175); fill-rule: nonzero; opacity: 1;"  transform=" translate(-12, -13)" d="M 3 20 L 3 6 C 3 5.20435 3.3163 4.44152 3.87891 3.87891 C 4.44152 3.3163 5.20435 3 6 3 L 8 3 C 8.55228 3 9 3.44772 9 4 C 9 4.55228 8.55228 5 8 5 L 6 5 C 5.73478 5 5.48051 5.10543 5.29297 5.29297 C 5.10543 5.48051 5 5.73478 5 6 L 5 20 L 5.00488 20.0986 C 5.02757 20.3276 5.12883 20.5429 5.29297 20.707 C 5.48051 20.8946 5.73478 21 6 21 L 18 21 C 18.2652 21 18.5195 20.8946 18.707 20.707 C 18.8946 20.5195 19 20.2652 19 20 L 19 6 C 19 5.73478 18.8946 5.48051 18.707 5.29297 C 18.5429 5.12883 18.3276 5.02757 18.0986 5.00488 L 18 5 L 16 5 C 15.4477 5 15 4.55228 15 4 C 15 3.44772 15.4477 3 16 3 L 18 3 L 18.2969 3.01465 C 18.9835 3.08291 19.6289 3.38671 20.1211 3.87891 C 20.6837 4.44152 21 5.20435 21 6 L 21 20 C 21 20.7957 20.6837 21.5585 20.1211 22.1211 C 19.5585 22.6837 18.7957 23 18 23 L 6 23 C 5.20435 23 4.44152 22.6837 3.87891 22.1211 C 3.38671 21.6289 3.08291 20.9835 3.01465 20.2969 L 3 20 Z" stroke-linecap="round" /></g><g transform="matrix(1 0 0 1 14 11)"  ><path style="stroke: none; stroke-width: 1; stroke-dasharray: none; stroke-linecap: butt; stroke-dashoffset: 0; stroke-linejoin: miter; stroke-miterlimit: 4; fill: rgb(156,163,175); fill-rule: nonzero; opacity: 1;"  transform=" translate(-14, -11)" d="M 16 10 C 16.5523 10 17 10.4477 17 11 C 17 11.5523 16.5523 12 16 12 L 12 12 C 11.4477 12 11 11.5523 11 11 C 11 10.4477 11.4477 10 12 10 L 16 10 Z" stroke-linecap="round" /></g><g transform="matrix(1 0 0 1 14 16)"  ><path style="stroke: none; stroke-width: 1; stroke-dasharray: none; stroke-linecap: butt; stroke-dashoffset: 0; stroke-linejoin: miter; stroke-miterlimit: 4; fill: rgb(156,163,175); fill-rule: nonzero; opacity: 1;"  transform=" translate(-14, -16)" d="M 16 15 C 16.5523 15 17 15.4477 17 16 C 17 16.5523 16.5523 17 16 17 L 12 17 C 11.4477 17 11 16.5523 11 16 C 11 15.4477 11.4477 15 12 15 L 16 15 Z" stroke-linecap="round" /></g><g transform="matrix(1 0 0 1 8 11)"  ><path style="stroke: none; stroke-width: 1; stroke-dasharray: none; stroke-linecap: butt; stroke-dashoffset: 0; stroke-linejoin: miter; stroke-miterlimit: 4; fill: rgb(156,163,175); fill-rule: nonzero; opacity: 1;"  transform=" translate(-8, -11)" d="M 8.00977 10 L 8.1123 10.0049 C 8.61655 10.0561 9.00977 10.4822 9.00977 11 C 9.00977 11.5178 8.61655 11.9439 8.1123 11.9951 L 8.00977 12 L 8 12 C 7.44772 12 7 11.5523 7 11 C 7 10.4477 7.44772 10 8 10 L 8.00977 10 Z" stroke-linecap="round" /></g><g transform="matrix(1 0 0 1 8 16)"  ><path style="stroke: none; stroke-width: 1; stroke-dasharray: none; stroke-linecap: butt; stroke-dashoffset: 0; stroke-linejoin: miter; stroke-miterlimit: 4; fill: rgb(156,163,175); fill-rule: nonzero; opacity: 1;"  transform=" translate(-8, -16)" d="M 8.00977 15 L 8.1123 15.0049 C 8.61655 15.0561 9.00977 15.4822 9.00977 16 C 9.00977 16.5178 8.61655 16.9439 8.1123 16.9951 L 8.00977 17 L 8 17 C 7.44772 17 7 16.5523 7 16 C 7 15.4477 7.44772 15 8 15 L 8.00977 15 Z" stroke-linecap="round" /></g></g></g></svg>