<svg xmlns="http://www.w3.org/2000/svg" width="20" height="20"  viewBox="0 0 20 20"><g transform="matrix(1 0 0 1 0 0)"  ><g style=""   ><g transform="matrix(0.83 0 0 0.83 10 10)"  ><path style="stroke: none; stroke-width: 1; stroke-dasharray: none; stroke-linecap: butt; stroke-dashoffset: 0; stroke-linejoin: miter; stroke-miterlimit: 4; fill: rgb(23,26,31); fill-rule: nonzero; opacity: 1;"  transform=" translate(-12, -12)" d="M 20 5 C 20 4.73478 19.8946 4.48051 19.707 4.29297 C 19.5195 4.10543 19.2652 4 19 4 L 5 4 C 4.73478 4 4.48051 4.10543 4.29297 4.29297 C 4.10543 4.48051 4 4.73478 4 5 L 4 18.5859 L 6.29297 16.293 L 6.36621 16.2266 C 6.54417 16.0807 6.76791 16 7 16 L 19 16 C 19.2652 16 19.5195 15.8946 19.707 15.707 C 19.8946 15.5195 20 15.2652 20 15 L 20 5 Z M 22 15 C 22 15.7957 21.6837 16.5585 21.1211 17.1211 C 20.5585 17.6837 19.7957 18 19 18 L 7.41406 18 L 3.70703 21.707 C 3.42103 21.993 2.99086 22.0786 2.61719 21.9238 C 2.24359 21.769 2 21.4044 2 21 L 2 5 C 2 4.20435 2.3163 3.44152 2.87891 2.87891 C 3.44152 2.3163 4.20435 2 5 2 L 19 2 C 19.7956 2 20.5585 2.3163 21.1211 2.87891 C 21.6837 3.44152 22 4.20435 22 5 L 22 15 Z" stroke-linecap="round" /></g></g></g></svg>