<svg xmlns="http://www.w3.org/2000/svg" width="14" height="14"  viewBox="0 0 14 14"><g transform="matrix(1 0 0 1 0 0)"  ><g style=""   ><g transform="matrix(0.58 0 0 0.58 7 7.29)"  ><path style="stroke: none; stroke-width: 1; stroke-dasharray: none; stroke-linecap: butt; stroke-dashoffset: 0; stroke-linejoin: miter; stroke-miterlimit: 4; fill: rgb(168,85,247); fill-rule: nonzero; opacity: 1;"  transform=" translate(-12, -12.5)" d="M 18 2 C 18.3344 2 18.6466 2.16711 18.832 2.44531 L 22.832 8.44531 C 23.0696 8.80168 23.0539 9.2698 22.793 9.60938 L 12.793 22.6094 C 12.6037 22.8555 12.3105 23 12 23 C 11.6895 23 11.3963 22.8555 11.207 22.6094 L 1.20705 9.60938 C 0.946087 9.2698 0.930404 8.80168 1.16798 8.44531 L 5.16798 2.44531 L 5.24318 2.34668 C 5.43177 2.12817 5.70734 2 6.00002 2 L 18 2 Z M 3.22951 8.95801 L 12 20.3594 L 20.7695 8.95801 L 17.4649 4 L 6.53517 4 L 3.22951 8.95801 Z" stroke-linecap="round" /></g><g transform="matrix(0.58 0 0 0.58 7 7.29)"  ><path style="stroke: none; stroke-width: 1; stroke-dasharray: none; stroke-linecap: butt; stroke-dashoffset: 0; stroke-linejoin: miter; stroke-miterlimit: 4; fill: rgb(168,85,247); fill-rule: nonzero; opacity: 1;"  transform=" translate(-12, -12.5)" d="M 12.5527 2.10547 C 13.0158 1.87392 13.5724 2.03575 13.8437 2.46387 L 13.8945 2.55274 L 16.8945 8.55274 C 16.9952 8.75403 17.0244 8.98253 16.9795 9.20118 L 16.956 9.29395 L 12.956 22.294 C 12.8269 22.7135 12.439 23 12 23 C 11.561 23 11.173 22.7135 11.0439 22.294 L 7.04394 9.29395 C 6.96838 9.04821 6.99049 8.78269 7.10546 8.55274 L 10.1055 2.55274 L 10.1562 2.46387 C 10.4276 2.03575 10.9842 1.87392 11.4473 2.10547 C 11.9104 2.33704 12.1153 2.87959 11.9355 3.35352 L 11.8945 3.44727 L 9.07324 9.0879 L 12 18.5986 L 14.9258 9.0879 L 12.1055 3.44727 L 12.0644 3.35352 C 11.8847 2.87959 12.0896 2.33704 12.5527 2.10547 Z" stroke-linecap="round" /></g><g transform="matrix(0.58 0 0 0.58 7 5.25)"  ><path style="stroke: none; stroke-width: 1; stroke-dasharray: none; stroke-linecap: butt; stroke-dashoffset: 0; stroke-linejoin: miter; stroke-miterlimit: 4; fill: rgb(168,85,247); fill-rule: nonzero; opacity: 1;"  transform=" translate(-12, -9)" d="M 22 8 C 22.5523 8 23 8.44772 23 9 C 23 9.55228 22.5523 10 22 10 L 2 10 C 1.44772 10 1 9.55228 1 9 C 1 8.44772 1.44772 8 2 8 L 22 8 Z" stroke-linecap="round" /></g></g></g></svg>